<svg width="342" height="54" viewBox="0 0 342 54" fill="none" xmlns="http://www.w3.org/2000/svg">
<rect width="342" height="54" fill="#FBCE0F"/>
<path d="M128.809 32V21.8145H130.955V26.3057H131.092L134.756 21.8145H137.333L133.56 26.374L137.381 32H134.804L132.015 27.8164L130.955 29.1084V32H128.809ZM146.527 21.8145V32H144.668L140.245 25.5947H140.156V32H138.01V21.8145H139.896L144.292 28.2197H144.381V21.8145H146.527ZM152.427 32.1367C151.524 32.1367 150.713 31.9316 149.993 31.5215C149.273 31.1113 148.703 30.5166 148.284 29.7373C147.865 28.958 147.655 28.0169 147.655 26.9141C147.655 25.8021 147.865 24.8564 148.284 24.0771C148.703 23.2933 149.273 22.6986 149.993 22.293C150.713 21.8828 151.524 21.6777 152.427 21.6777C153.329 21.6777 154.14 21.8828 154.86 22.293C155.58 22.6986 156.148 23.2933 156.562 24.0771C156.982 24.8564 157.191 25.8021 157.191 26.9141C157.191 28.0215 156.982 28.9648 156.562 29.7441C156.148 30.5234 155.58 31.1182 154.86 31.5283C154.14 31.9339 153.329 32.1367 152.427 32.1367ZM152.427 30.2363C152.951 30.2363 153.407 30.1087 153.794 29.8535C154.181 29.5983 154.48 29.2246 154.689 28.7324C154.904 28.2357 155.011 27.6296 155.011 26.9141C155.011 26.194 154.904 25.5856 154.689 25.0889C154.48 24.5921 154.181 24.2161 153.794 23.9609C153.407 23.7057 152.951 23.5781 152.427 23.5781C151.907 23.5781 151.454 23.7057 151.066 23.9609C150.679 24.2161 150.376 24.5921 150.157 25.0889C149.943 25.5856 149.836 26.194 149.836 26.9141C149.836 27.6296 149.943 28.2357 150.157 28.7324C150.376 29.2246 150.679 29.5983 151.066 29.8535C151.454 30.1087 151.907 30.2363 152.427 30.2363ZM160.233 32L157.321 21.8145H159.673L161.361 28.8896H161.45L163.303 21.8145H165.319L167.172 28.9102H167.261L168.949 21.8145H171.301L168.382 32H166.283L164.355 25.3418H164.273L162.339 32H160.233ZM174.787 21.8145H177.446L180.249 28.6572H180.365L183.175 21.8145H185.841V32H183.735V25.3691H183.653L181.008 31.9521H179.586L176.961 25.3555H176.879V32H174.787V21.8145ZM191.747 32.1367C190.845 32.1367 190.034 31.9316 189.313 31.5215C188.593 31.1113 188.024 30.5166 187.604 29.7373C187.185 28.958 186.976 28.0169 186.976 26.9141C186.976 25.8021 187.185 24.8564 187.604 24.0771C188.024 23.2933 188.593 22.6986 189.313 22.293C190.034 21.8828 190.845 21.6777 191.747 21.6777C192.649 21.6777 193.461 21.8828 194.181 22.293C194.901 22.6986 195.468 23.2933 195.883 24.0771C196.302 24.8564 196.512 25.8021 196.512 26.9141C196.512 28.0215 196.302 28.9648 195.883 29.7441C195.468 30.5234 194.901 31.1182 194.181 31.5283C193.461 31.9339 192.649 32.1367 191.747 32.1367ZM191.747 30.2363C192.271 30.2363 192.727 30.1087 193.114 29.8535C193.502 29.5983 193.8 29.2246 194.01 28.7324C194.224 28.2357 194.331 27.6296 194.331 26.9141C194.331 26.194 194.224 25.5856 194.01 25.0889C193.8 24.5921 193.502 24.2161 193.114 23.9609C192.727 23.7057 192.271 23.5781 191.747 23.5781C191.228 23.5781 190.774 23.7057 190.387 23.9609C189.999 24.2161 189.696 24.5921 189.478 25.0889C189.263 25.5856 189.156 26.194 189.156 26.9141C189.156 27.6296 189.263 28.2357 189.478 28.7324C189.696 29.2246 189.999 29.5983 190.387 29.8535C190.774 30.1087 191.228 30.2363 191.747 30.2363ZM197.646 32V21.8145H201.659C202.429 21.8145 203.086 21.9512 203.628 22.2246C204.175 22.498 204.592 22.8854 204.879 23.3867C205.171 23.8835 205.316 24.4691 205.316 25.1436C205.316 25.818 205.171 26.3991 204.879 26.8867C204.587 27.3743 204.163 27.748 203.607 28.0078C203.056 28.263 202.388 28.3906 201.604 28.3906H198.918V26.6611H201.256C201.671 26.6611 202.012 26.6042 202.281 26.4902C202.555 26.3763 202.757 26.2077 202.89 25.9844C203.026 25.7611 203.095 25.4808 203.095 25.1436C203.095 24.8018 203.026 24.5169 202.89 24.2891C202.757 24.0566 202.555 23.8812 202.281 23.7627C202.008 23.6396 201.664 23.5781 201.249 23.5781H199.793V32H197.646ZM203.3 32L200.818 27.3652H203.143L205.679 32H203.3ZM206.383 32V21.8145H213.246V23.5918H208.529V25.9844H212.891V27.7275H208.529V30.2227H213.26V32H206.383Z" fill="black"/>
</svg>
